<?xml version="1.0" encoding="utf-8"?>
<!-- Generator: Adobe Illustrator 21.0.0, SVG Export Plug-In . SVG Version: 6.00 Build 0)  -->
<svg version="1.1" id="Layer_1" xmlns="http://www.w3.org/2000/svg" xmlns:xlink="http://www.w3.org/1999/xlink" x="0px" y="0px"
   viewBox="0 0 1440 590.1" style="enable-background:new 0 0 1440 590.1;" xml:space="preserve">
<style type="text/css">
  .st0{fill:#00C1DE;}
  .st1{fill:#FFFFFF;}
</style>
<rect class="st0" width="1440" height="590.1"/>
<path class="st1" d="M1050,799.3c-49.2-7.1-86.2-7-123.9,0.5c-27.4,4.8-55.9,14.2-88.9,25.2c-55,18.3-123.5,41-212.2,48.1
  c-76.4,6.3-158.9-3.5-238.5-28.5c-97.9-30.6-193-83.7-282.7-157.6C54,646,5.8,598.3-39.7,545c-48.2-56.5-93.4-119.3-134.3-186.8
  c-88-144.8-159-315.8-205.4-494.4l-1,0.3C-334,42.8-262.9,213.8-174.8,358.7c40.9,67.5,86.1,130.4,134.4,187
  C5.1,599,53.4,646.8,103.2,687.8c89.8,74,185.1,127.1,283,157.8c64.1,20.1,130,30.4,193.2,30.4c15.4,0,30.7-0.6,45.8-1.9
  C714,867,782.6,844.3,837.6,826c33-10.9,61.4-20.4,88.7-25.2c37.5-7.4,74.5-7.5,123.5-0.5c15.5,2.1,32.3,4.9,50.1,7.8
  c38.9,6.5,83,13.8,138.7,18.4l0.1-1c-55.7-4.5-99.8-11.9-138.6-18.4C1082.3,804.2,1065.5,801.4,1050,799.3z"/>
<path class="st1" d="M1086.2,750.6c-51.9-4.8-91.4-3-131.9,6.3c-29,6-58.5,16.4-92.7,28.5c-59.5,21-127,44.9-216,53.8
  c-77.2,8-156.9,0-236.8-23.8c-96.3-28.7-189.7-79.8-277.5-151.8C82.8,623.9,35.7,577.3-8.6,525.3c-46.9-55.1-90.7-116.6-130.3-182.8
  c-85.1-141.6-153.3-309-197.4-484.1l-1,0.2C-293.2,33.9-224.9,201.4-139.8,343c39.6,66.2,83.5,127.7,130.4,182.9
  c44.3,52.1,91.4,98.7,140,138.6c87.9,72.2,181.4,123.3,277.9,152c60,17.9,119.8,26.8,178.5,26.8c19.7,0,39.2-1,58.7-3
  c89.1-9,156.6-32.8,216.2-53.9c34.2-12.1,63.7-22.5,92.6-28.5c40.4-9.2,79.7-11.1,131.6-6.2c17.8,1.5,37.2,3.8,57.8,6.2
  c39.6,4.7,84.4,10,139.8,12.5v-1c-55.3-2.5-100.2-7.8-139.7-12.5C1123.5,754.4,1104,752.1,1086.2,750.6L1086.2,750.6z"/>
<path class="st1" d="M1120.2,703.5c-54-2.7-97,0.9-139.6,11.7c-30.6,7.2-62.8,19.2-97,31.9c-61,22.7-130.1,48.4-219.2,59.2
  c-76.9,9.6-156,3.1-235.1-19.3c-94.8-26.8-186.5-76-272.5-146.3c-47.4-38.7-93.4-84.1-136.4-135c-45.6-53.9-88.1-114-126.5-178.8
  c-82.2-138.5-147.8-302.5-189.6-474.3l-1,0.2C-254.9,24.7-189.3,188.9-107,327.4c38.4,64.9,81,125.1,126.6,179
  c43.1,51,89.1,96.5,136.6,135.2c86.1,70.3,177.9,119.6,272.8,146.5c55.5,15.7,111.1,23.6,165.9,23.6c23.3,0,46.6-1.4,69.6-4.3
  C753.8,796.5,823,770.7,884,748c34.1-12.7,66.3-24.7,96.8-31.8c42.5-10.8,85.5-14.4,139.4-11.7c20,0.8,41.9,2.5,65.1,4.3
  c40.2,3.1,85.8,6.6,140.9,7.4v-1c-55.1-0.7-100.6-4.3-140.8-7.4C1162.1,706,1140.2,704.3,1120.2,703.5z"/>
<path class="st1" d="M1224.1,660.1c-25.7-1.1-49.9-2.1-72-2.2c-56.6-0.8-102,4.4-147.2,16.9c-32.4,8.3-66,21.4-101.5,35.2
  c-62.3,24.2-132.9,51.6-221.8,64c-76.7,11-155.3,6-233.4-15c-93.4-25.1-183.4-72.5-267.6-141c-46.3-37.6-91.1-82-133.1-131.8
  C3.2,433.5-38.1,374.6-75.3,311.1c-79.5-135.5-142.4-296.3-182-465l-1,0.2C-218.6,15.1-155.7,176-76.1,311.6
  c37.2,63.6,78.5,122.6,122.9,175.2c42,49.9,86.8,94.3,133.2,131.9c84.3,68.6,174.4,116.1,268,141.2c51.4,13.8,102.9,20.7,154,20.7
  c26.8,0,53.4-1.9,79.8-5.7c89-12.4,159.7-39.9,222-64.1c35.5-13.8,69.1-26.8,101.4-35.1c45.1-12.4,90.4-17.6,146.9-16.8
  c22.1,0.1,46.3,1.1,71.9,2.2c40.9,1.7,87.2,3.7,142.2,2.9v-1C1311.2,663.8,1264.9,661.8,1224.1,660.1L1224.1,660.1z"/>
<path class="st1" d="M1260.2,613.8c-27.9-0.3-54.3-0.6-78.3,0c-59.2,1-106.9,7.7-154.5,21.7c-34.2,9.5-69.3,23.6-106.5,38.5
  c-63.5,25.5-135.4,54.4-223.9,68.4c-76.5,12.4-154.5,8.7-231.8-10.9c-92-23.4-180.4-69.1-262.8-136
  c-45.2-36.6-88.9-79.9-129.8-128.7c-43-51.5-83.1-109.2-119.1-171.6c-76.8-132.7-137.2-290.4-174.7-456l-1,0.2
  c37.5,165.8,98,323.5,174.8,456.3c36,62.4,76.1,120.2,119.2,171.7c40.9,48.9,84.6,92.2,129.9,128.9C284.3,663.2,372.9,709,465,732.4
  c47.5,12.1,95.3,18.1,142.8,18.1c29.9,0,59.8-2.4,89.4-7.2c88.6-14,160.6-42.9,224.1-68.5c37.1-14.9,72.2-29,106.4-38.5
  c47.5-13.9,95.1-20.6,154.2-21.6c24-0.6,50.4-0.3,78.3,0c41.5,0.5,88.6,1.1,143.7-1.1v-1C1348.8,614.9,1301.7,614.3,1260.2,613.8
  L1260.2,613.8z"/>
<path class="st1" d="M1293.9,569c-30,0.4-58.4,0.8-84.2,2.2c-61.8,2.7-111.6,10.8-161.6,26.1c-36.2,10.6-72.9,25.7-111.7,41.8
  c-64.4,26.7-137.5,57-225.4,72.3c-76.4,13.7-153.8,11.3-230.2-7.1c-90.6-21.8-177.5-65.9-258.2-131.2
  c-44.2-35.6-86.8-78-126.6-125.8c-42-50.2-80.8-106.8-115.7-168c-74.2-130-132.2-284.8-167.6-447.5l-1,0.2
  C-152.8-5.2-94.8,149.7-20.5,279.8C14.3,341.1,53.2,397.7,95.2,448c39.9,47.9,82.5,90.3,126.8,125.9
  c80.8,65.3,167.8,109.5,258.5,131.4c43.9,10.6,88.1,15.9,132.3,15.9c32.9,0,65.7-2.9,98.3-8.8c88.1-15.4,161.2-45.7,225.7-72.4
  c38.8-16.1,75.4-31.2,111.6-41.8c49.8-15.3,99.6-23.4,161.3-26.1c25.8-1.3,54.1-1.7,84.2-2.2c42.3-0.6,90.2-1.3,145.4-4.6l-0.1-1
  C1384,567.8,1336.1,568.5,1293.9,569L1293.9,569z"/>
<path class="st1" d="M1325.1,525.9c-31.9,1.1-62.1,2.2-89.6,4.3c-63.5,4.2-117,13.8-168.5,30.2c-38.3,11.6-76.6,27.9-117.3,45.1
  c-65.3,27.7-139.3,59.1-226.5,75.7C647,696.1,570,695,494.5,677.8c-89.2-20.4-174.5-63-253.5-126.7c-43.2-34.7-84.7-76.1-123.5-123
  C76.7,378.8,39,323.4,5.3,263.2C-66.4,135.8-122-16.2-155.5-176.3l-1,0.2C-123-15.9-67.4,136.2,4.4,263.7
  c33.7,60.2,71.5,115.7,112.3,165.1c38.8,47,80.4,88.4,123.7,123.2c79.1,63.8,164.6,106.5,254,126.8c40.5,9.2,81.5,13.8,122.5,13.8
  c35.5,0,71.2-3.5,106.6-10.4c87.3-16.7,161.4-48.1,226.7-75.8c40.6-17.2,79-33.5,117.2-45.1c51.4-16.4,104.8-26,168.2-30.2
  c27.5-2,57.6-3.1,89.5-4.3c43-1.5,91.8-3.3,147.4-7.8l-0.1-1C1416.8,522.6,1368.1,524.3,1325.1,525.9z"/>
<path class="st1" d="M1353.9,484.3c-33.6,1.8-65.4,3.6-94.4,6.3c-66,5.6-121.6,16.4-175.2,34c-40.4,12.7-80.6,30.1-123.1,48.5
  C892,603,820.5,633.9,734.1,651.7c-76.1,16-152.5,16-227.2,0c-88-18.9-171.9-60.1-249.2-122.4C171.3,459.8,92,362.2,28.5,247
  C-40.8,121.9-94.1-27.4-125.6-184.9l-1,0.2c31.5,157.6,84.9,307,154.2,432.2c63.7,115.4,143,213.1,229.6,282.6
  c77.4,62.4,161.4,103.6,249.6,122.6c37.4,8,75.3,12.1,113.3,12.1s76.2-4,114.3-12c86.5-17.8,158.1-48.7,227.3-78.7
  c42.5-18.4,82.7-35.7,123-48.4c53.5-17.6,109.1-28.3,175-33.9c29-2.7,60.7-4.4,94.4-6.3c43.8-2.4,93.5-5.1,149.8-10.5l-0.1-1
  C1447.4,479.2,1397.8,481.9,1353.9,484.3L1353.9,484.3z"/>
<path class="st1" d="M1380.5,444.4c-35.2,2.5-68.4,4.8-98.7,8.1c-68.4,6.9-126.2,18.7-181.7,37.4c-42.7,13.7-84.7,32.2-129.3,51.8
  c-69.7,30.6-141.8,62.3-227.2,81c-76,17.1-151.9,18.1-225.7,3.1C431,608.2,348.7,568.4,273,507.5c-84.4-67.7-161.5-163.5-223.1-277
  C-17,107.7-68-39.1-97.6-194.2l-1,0.2C-69-38.9-17.9,108.1,49,231c61.6,113.6,138.9,209.5,223.3,277.2
  c75.8,61,158.3,100.9,245.3,118.6c34.5,7,69.6,10.5,104.8,10.5c40.2,0,80.8-4.6,121.3-13.7c85.5-18.8,157.7-50.4,227.4-81.1
  c44.5-19.5,86.5-38,129.2-51.7c55.5-18.6,113.1-30.5,181.5-37.3c30.4-3.3,63.6-5.6,98.7-8.1c44.7-3.2,95.4-6.7,152.3-13l-0.1-1
  C1476,437.7,1425.3,441.3,1380.5,444.4z"/>
<path class="st1" d="M1427.5,369.8c-37.8,3.6-73.4,6.9-106.2,11.2c-73.3,9-135,22.7-194.3,43.1c-47.5,15.7-93.6,36.4-142.4,58.3
  c-70.3,31.5-143.1,64.1-226.2,84.4c-115.8,28.9-289.5,34.6-459.2-102.4c-80.5-64.6-153.4-157-211-267.3
  C25.7,78.3-20.9-64.1-46.9-214.8l-1,0.2c26,150.8,72.7,293.3,135,412.1c57.7,110.4,130.7,203,211.3,267.7
  C411.7,556.4,526.6,584.5,625,584.5c49.5,0,94.8-7.1,133.6-16.8c83.3-20.3,156-52.9,226.4-84.4c48.8-21.9,94.9-42.5,142.3-58.2
  c59.2-20.4,120.9-34.1,194.1-43.1c32.8-4.2,68.4-7.6,106.2-11.2c46.7-4.4,99.6-9.4,158.3-17.1l-0.1-1
  C1527.1,360.4,1474.2,365.4,1427.5,369.8z"/>
<path class="st1" d="M1448.1,335c-38.9,4-75.5,7.8-109.4,12.4c-75.6,9.9-139.3,24.3-200.4,45.4c-50.1,16.7-98.3,38.4-149.4,61.4
  c-70.4,31.7-143.2,64.5-225.1,85.4c-75.7,19.7-150.2,23.5-221.4,11.2c-83.3-14.3-161.5-50.7-232.3-108
  c-78.6-63.2-149.5-154.2-205.2-263.1C44.8,62.9,0.2-77.5-23.9-226.2l-1,0.2C-0.7-77.2,43.8,63.3,104,180.3
  c55.7,109,126.8,200.1,205.4,263.4c71,57.5,149.3,93.9,232.8,108.2c27.3,4.7,55,7,83.2,7c45.4,0,91.8-6.1,138.6-18.3
  c82-20.8,154.8-53.7,225.3-85.4c51-23,99.3-44.7,149.3-61.4c61-21.1,124.7-35.5,200.2-45.4c33.8-4.6,70.5-8.4,109.4-12.4
  c47.8-4.9,101.9-10.5,161.5-18.8l-0.1-1C1550,324.6,1495.8,330.1,1448.1,335L1448.1,335z"/>
<path class="st1" d="M1467,302c-39.8,4.3-77.5,8.4-112.3,13.4c-78,10.6-143.6,25.7-206.4,47.4c-52.8,17.6-103.2,40.4-156.6,64.5
  c-70.3,31.8-143.1,64.7-223.6,85.9c-75.7,20.4-149.7,24.9-220,13.4c-82.2-13.4-159-48.8-228.3-105.1
  c-76.7-62-145.6-151.6-199.4-259.1C62.4,47.2,19.9-91.4-2.5-238.4l-1,0.2c22.5,147,65,285.7,122.9,401
  c53.8,107.7,122.9,197.4,199.7,259.5c69.5,56.5,146.4,91.9,228.8,105.3c25.3,4.1,51.1,6.2,77.2,6.2c46.7,0,94.6-6.6,143.2-19.7
  c80.6-21.2,153.4-54.1,223.8-85.9c53.4-24.1,103.8-46.9,156.5-64.5c62.8-21.7,128.3-36.7,206.2-47.3c34.8-5,72.4-9.1,112.2-13.4
  c48.9-5.3,104.2-11.4,164.9-20.2l-0.1-1C1571.2,290.6,1515.8,296.7,1467,302z"/>
<path class="st1" d="M1484.2,270.7c-40.7,4.6-79.2,9-114.9,14.2c-80.3,11.2-147.8,26.8-212.2,49c-55.5,18.4-108.3,42.3-164.1,67.5
  c-70.1,31.7-142.6,64.5-221.8,86c-75.6,21-149.2,26.2-218.6,15.4c-81.1-12.6-156.6-47.1-224.4-102.5
  C253.3,339.4,186.3,251,134.5,144.6C78.7,30.9,38.3-106,17.6-251.3l-1,0.1c20.7,145.5,61.1,282.5,117,396.3
  c51.9,106.5,119,195,194,255.9c67.9,55.5,143.6,90.1,224.8,102.7c23.5,3.7,47.5,5.5,71.9,5.5c47.7,0,97-7,147.1-20.9
  c79.2-21.5,151.7-54.3,221.9-86c55.8-25.2,108.5-49.1,164-67.5c64.4-22.2,131.8-37.7,212.1-48.9c35.7-5.2,74.1-9.6,114.9-14.2
  c50-5.7,106.7-12.1,168.5-21.3l-0.1-1C1590.8,258.6,1534.2,265,1484.2,270.7L1484.2,270.7z"/>
<path class="st1" d="M1500,241c-41.6,4.8-80.8,9.4-117.3,14.8c-82.6,11.7-151.9,27.7-218,50.2c-58.4,19.2-116.1,45.2-171.8,70.4
  c-69.8,31.5-141.9,64-219.6,85.6c-75.6,21.5-148.7,27.3-217.3,17.1c-80-11.9-154.2-45.6-220.5-100.2
  C262.4,319,197.4,231.8,147.4,126.5C93.7,14.2,55.4-121.2,36.5-265l-1,0.1C54.4-121,92.8,14.6,146.5,127
  c50.1,105.4,115.2,192.8,188.4,252.7c66.4,54.7,140.8,88.5,221,100.4c22,3.3,44.4,4.9,67.2,4.9c48.6,0,99-7.4,150.5-22
  c77.7-21.7,149.9-54.2,219.7-85.7c58.3-26.3,113.3-51.1,171.7-70.3c66-22.5,135.2-38.5,217.8-50.2c36.5-5.4,75.7-9.9,117.3-14.8
  c51.2-5.9,109.1-12.7,172.2-22.2l-0.2-1C1609.1,228.4,1551.1,235.1,1500,241L1500,241z"/>
<path class="st1" d="M1514.4,213.1c-42.3,4.9-82.3,9.6-119.6,15.1c-84.9,12-156,28.3-223.7,51.1c-61.4,20-121.5,47-179.7,73.1
  c-69.3,31.1-140.9,63.3-217.1,84.9c-75.6,22-148.2,28.2-215.9,18.6c-79-11.2-151.8-44.2-216.6-98.1
  c-71.3-59-134.5-145.3-182.6-249.6C107.6-3,71.3-137.1,54.1-279.6l-1,0.1c17.2,142.6,53.6,276.8,105.2,388
  c48.2,104.5,111.5,190.9,182.9,250c64.9,54,138,87.1,217.1,98.3c20.6,2.9,41.7,4.4,63.1,4.4c49.2,0,100.5-7.7,153.2-23
  c76.2-21.7,147.9-53.8,217.2-85c58.2-26.1,118.3-53.1,179.6-73c67.6-22.8,138.6-39,223.5-51c37.2-5.5,77.2-10.2,119.5-15.1
  c52.3-6.1,111.7-13,175.9-22.8l-0.2-1C1626,200,1566.7,206.9,1514.4,213.1L1514.4,213.1z"/>
<path class="st1" d="M1527.6,186.8c-43.1,5-83.7,9.7-121.7,15.3c-87.2,12.2-160,28.6-229.2,51.6c-64.5,20.6-127.2,48.6-187.8,75.6
  c-68.7,30.6-139.7,62.3-214.2,83.8c-75.5,22.3-147.7,29-214.6,19.8c-77.9-10.7-149.5-43.1-212.8-96.4
  c-69.7-58.2-131-143.7-177.3-247.1C120.5-20.7,86.1-153.6,70.7-295l-1,0.1c15.4,141.5,49.8,274.5,99.4,384.7
  c46.4,103.6,107.7,189.1,177.4,247.4c63.4,53.4,135.2,85.9,213.3,96.6c19.5,2.7,39.3,4,59.6,4c49.6,0,101.7-8,155.4-23.8
  c74.6-21.6,145.7-53.2,214.4-83.9c60.6-27,123.3-55,187.7-75.6c69.1-22.9,141.9-39.3,229.1-51.5c38-5.5,78.6-10.3,121.7-15.3
  c53.5-6.2,114.2-13.3,179.7-23.1l-0.1-1C1641.8,173.5,1581.1,180.6,1527.6,186.8L1527.6,186.8z"/>
<path class="st1" d="M1539.7,162.1c-43.8,5-85.1,9.7-123.8,15.2c-89.5,12.3-164.1,28.7-234.7,51.7c-67.6,21.2-132.9,50-196.1,77.9
  c-68,30-138.3,61-211.2,82.4c-164.8,49.3-306.9,24.3-422.3-74.2c-67.9-57.5-127.2-142.2-171.7-245C132.4-39,100-170.9,86.3-311.3
  l-1,0.1c13.7,140.6,46,272.6,93.6,381.8c44.5,102.9,104,187.7,172,245.3c61.9,52.8,132.4,84.9,209.5,95.1
  c18.5,2.5,37.4,3.7,56.7,3.7c49.9,0,102.4-8.2,156.9-24.5c73-21.4,143.3-52.4,211.3-82.4c63.2-27.9,128.5-56.7,196-77.9
  c70.6-23,145.2-39.4,234.6-51.6c38.7-5.5,80-10.2,123.8-15.2c54.7-6.2,116.8-13.3,183.5-23.2l-0.1-1
  C1656.4,148.8,1594.4,155.9,1539.7,162.1L1539.7,162.1z"/>
<path class="st1" d="M1550.8,139.1c-44.4,4.9-86.4,9.5-125.8,15c-91.7,12.2-168,28.5-240.2,51.4c-70.9,21.7-138.8,51.3-204.6,80
  c-67.2,29.3-136.6,59.6-207.9,80.6c-164.4,49.5-304.8,25.2-417.2-72.3c-66.2-57-123.7-141.1-166.3-243.2
  c-45.5-108.4-75.9-239.4-87.8-379l-1,0.1C111.9-188.6,142.3-57.5,187.9,51c42.7,102.3,100.3,186.5,166.6,243.6
  c74.9,64.9,162.1,97.5,260.5,97.5c49.7,0,102.3-8.3,157.6-25c71.3-21.1,140.8-51.4,208-80.7c65.7-28.7,133.7-58.3,204.5-80
  c72.1-22.9,148.4-39.2,240-51.4c39.4-5.5,81.3-10.1,125.8-15c55.9-6.2,119.3-13.1,187.3-23l-0.1-1
  C1670.1,126,1606.7,133,1550.8,139.1L1550.8,139.1z"/>
<path class="st1" d="M1561,117.7c-45.1,4.7-87.8,9.2-127.9,14.5c-94,11.9-172,28.1-245.6,50.8c-74.2,22.1-144.9,52.5-213.2,81.8
  c-66.3,28.5-134.8,58-204.4,78.6c-75.5,22.8-146.4,30.2-210.6,21.9c-74.9-9.7-142.7-40.9-201.5-92.9
  C293.4,216,237.7,132.3,196.9,30.6c-43.5-107.8-71.9-238.2-82-377.1l-1,0.1C124.1-207.3,152.5-76.9,196,31
  c40.8,101.8,96.6,185.6,161.2,242.3c59,52.1,127,83.4,202.1,93.1c17.1,2.2,34.6,3.3,52.6,3.3c49.8,0,102.8-8.4,158.4-25.2
  c69.6-20.6,138.2-50.1,204.5-78.6c68.3-29.4,139-59.8,213.1-81.8c73.6-22.7,151.5-38.8,245.4-50.8c40.1-5.3,82.7-9.8,127.8-14.5
  c59.9-6.3,121.8-12.8,191.1-22.4l-0.1-1C1682.9,104.9,1620.9,111.4,1561,117.7L1561,117.7z"/>
<path class="st1" d="M1570.6,97.9c-45.8,4.5-89.1,8.8-129.9,13.9c-94.9,11.4-177,27.7-251,49.8c-77.6,22.3-151,53.4-221.9,83.4
  c-68.3,28.9-132.8,56.2-200.7,76.3c-75.5,22.8-146,30.3-209.3,22.1c-73.9-9.5-140.5-40.6-197.8-92.3
  c-62.8-56.2-116.6-139.5-155.6-240.9C162.9-97.1,136.5-227,128.1-365.4l-1,0.1c8.4,138.5,34.8,268.5,76.3,375.9
  c19.9,51.7,43.5,98.7,70.2,139.7c25.8,39.7,54.6,73.8,85.6,101.5c57.5,51.8,124.2,83,198.4,92.5c16.7,2.2,33.8,3.2,51.4,3.2
  c49.5,0,102.5-8.5,158.3-25.3c67.9-20.1,132.4-47.4,200.8-76.3c70.9-30,144.3-61,221.8-83.3c74-22.1,156-38.4,250.8-49.8
  c40.8-5.1,84.1-9.4,129.9-13.9c61.1-6,124.3-12.2,194.8-21.6l-0.1-1C1694.9,85.7,1631.7,91.9,1570.6,97.9L1570.6,97.9z"/>
<path class="st1" d="M1579.5,79.7c-46.6,4.2-90.6,8.2-132.1,13.1c-97,10.9-180.9,26.7-256.3,48.4c-81,22.4-157.2,54-230.8,84.6
  c-67.2,27.9-130.7,54.2-196.8,73.8c-75.6,22.7-145.5,30.2-208,22c-72.9-9.5-138.2-40.4-194.1-92c-30.1-27.6-58-61.6-82.9-101.1
  c-25.8-40.8-48.4-87.7-67.3-139.2c-39.5-107-63.9-236.6-70.4-374.7h-1c6.6,138.2,30.9,267.9,70.5,375
  c18.9,51.6,41.6,98.5,67.4,139.4c25,39.6,52.9,73.6,83.1,101.3c56,51.7,121.5,82.7,194.7,92.3c16.4,2.1,33.3,3.2,50.7,3.2
  c49,0,101.8-8.4,157.7-25.3c66.2-19.6,129.7-45.9,196.9-73.8c73.6-30.5,149.7-62.1,230.7-84.5c75.4-21.7,159.2-37.5,256.1-48.4
  c41.5-4.9,85.5-8.9,132.1-13.1c62.3-5.7,126.8-11.5,198.4-20.5l-0.1-1C1706.2,68.2,1641.8,74,1579.5,79.7L1579.5,79.7z"/>
<path class="st1" d="M1587.9,63c-47.4,3.9-92.1,7.5-134.4,12.1c-99.2,10.2-184.8,25.5-261.6,46.7c-84.6,22.4-163.4,54.5-239.7,85.4
  c-66,26.8-128.4,52.2-192.9,71.1c-75.6,22.6-145.1,29.9-206.7,21.7c-71.9-9.5-136-40.5-190.4-92c-29.3-27.5-56.3-61.5-80.3-101
  c-24.8-40.8-46.5-87.6-64.5-139C180-138.8,157.7-268.2,153-406.2h-1c4.7,138,27.1,267.5,64.6,374.5c18,51.5,39.7,98.4,64.6,139.2
  c24.1,39.5,51.2,73.6,80.5,101.2c54.6,51.7,118.8,82.7,191,92.3c16.3,2.2,33.2,3.2,50.6,3.2c48.4,0,100.8-8.4,156.5-25
  c64.5-18.9,126.9-44.3,193-71.1c76.2-31,155-63,239.6-85.4c76.8-21.2,162.3-36.5,261.5-46.7c42.3-4.6,87-8.2,134.4-12.1
  c63.5-5.2,129.1-10.6,202-19l-0.1-1C1717.1,52.4,1651.4,57.8,1587.9,63z"/>
<path class="st1" d="M1596,47.9c-48.2,3.5-93.7,6.8-136.8,11c-101.4,9.4-188.7,24-266.9,44.6c-88.2,22.3-169.7,54.6-248.6,85.9
  c-64.8,25.7-126.1,50-188.8,68.2c-76.7,22.5-143.9,29.4-205.4,21c-71-9.7-133.8-40.7-186.7-92.3c-28.5-27.6-54.7-61.6-77.8-101
  c-24-40.8-44.7-87.6-61.7-139.1C187.8-160.6,167.5-290,164.7-428h-1c2.8,138,23.1,267.5,58.7,374.5c17,51.6,37.8,98.4,61.7,139.3
  c23.2,39.5,49.4,73.6,78,101.2c53.1,51.7,116.1,82.9,187.3,92.6c16.9,2.3,34.1,3.5,51.9,3.5c47.3,0,98-8.2,153.8-24.6
  c62.8-18.2,124.1-42.5,188.9-68.2c78.9-31.3,160.4-63.6,248.5-85.9c78.2-20.6,165.4-35.2,266.8-44.6c43.1-4.2,88.6-7.5,136.8-11
  c64.6-4.7,131.4-9.5,205.4-17.3l-0.1-1C1727.4,38.4,1660.6,43.2,1596,47.9L1596,47.9z"/>
<path class="st1" d="M1983.8,49.3c-69.2-11.8-134.8-24.1-198.3-36.1c7.4-0.5,14.8-1.1,22.4-1.7c52,8.7,105.5,17.5,161.5,25.8l0.1-1
  c-54.5-8.2-106.8-16.7-157.5-25.2c3.7-0.3,7.4-0.6,11.2-0.9l-0.1-1c-5.1,0.4-10.1,0.8-15.1,1.2c-9.6-1.6-19.1-3.2-28.6-4.8
  c7.4-0.4,14.9-0.8,22.4-1.3c49.6,7.3,100.7,14.6,154,21.5l0.1-1c-51.6-6.7-101.2-13.7-149.3-20.8c7.6-0.5,15.4-1,23.1-1.5
  c36.7,4.6,74.2,9,113,13.2l0.1-1c-37.5-4.1-73.8-8.4-109.3-12.8V1.2c-1.3,0.1-2.5,0.2-3.8,0.3c-9.1-1.1-18.2-2.3-27.2-3.4
  c7.5-0.3,15.1-0.7,22.7-1.1c34.1,3.5,69.1,7,105.1,10.2l0.1-1c-33.8-3-66.6-6.2-98.7-9.5c4-0.2,8-0.4,12.1-0.6l-0.1-1
  c-6.2,0.3-12.4,0.7-18.6,1c-8.4-0.9-16.8-1.8-25.1-2.6c7.2-0.2,14.4-0.4,21.7-0.6c31.4,2.6,63.6,5.1,96.7,7.4l0.1-1
  c-30.1-2.1-59.4-4.3-88.1-6.7c7.1-0.2,14.3-0.5,21.6-0.8c18,1.1,36.4,2.1,55,3v-1c-17.9-0.9-35.6-1.8-53-2.9v-0.2
  c-0.7,0-1.4,0-2,0.1l-19.8-1.2l17.8-0.3c15.1,0.6,30.4,1.1,45.9,1.6v-1c-10.6-0.3-21.2-0.7-31.6-1.1v-0.5l20.9,0.3v-1
  c-3.5,0-7-0.1-10.5-0.1V-13c-8.6,0-17.1,0.1-25.5,0.1c-21.3-0.4-42.1-0.9-62.6-1.6c-20.2-1-40.2-2-59.8-3.1
  c-16.6-1.2-33.1-2.5-49.4-3.7l-7.5-0.6c-18.2-1.7-36.1-3.3-53.7-4.9c-17-1.8-33.8-3.6-50.4-5.3c-15.6-1.8-30.9-3.6-46.1-5.2
  c-14.2-1.8-28.2-3.5-42-5.1c-13-1.7-25.7-3.4-38.3-4.9c-96.5-13.5-182.5-20.9-260.9-22.6c-143.4-4.6-266,12.2-374.1,27
  c-50.4,6.9-98,13.4-142.5,17c-77.3,6.3-135.2-0.4-182.2-21.2c-55.1-24.4-95.5-68.7-123.5-135.4c-30.4-72.3-45.4-170.1-44.5-290.8
  c0.8-126.9,19.4-278.6,53.9-438.8l-1-0.2c-34.5,160.3-53.2,312.1-53.9,439c-0.8,120.8,14.2,218.8,44.6,291.2
  c28.1,67,68.7,111.4,124,135.9C526.5-25.3,584.6-18.5,662-24.9c44.5-3.6,92.1-10.1,142.6-17c108.1-14.8,230.6-31.6,373.9-27
  c63,1.4,130.9,6.5,205.2,15.4c-74.6-7.6-142.5-11.4-205.5-11.4c-140.7-1.6-261.7,17.6-368.4,34.5c-50.5,8-98.2,15.5-142.9,20.1
  C589.4-2.4,531-7.8,483-27.3C426.7-50.1,384.9-92.9,355.1-158c-32.3-70.5-49.6-166.4-51.2-285.1c-1.9-124.6,13.9-273.7,45.5-431.3
  l-1-0.2C316.7-716.9,301-567.7,302.9-443c1.7,118.8,18.9,214.8,51.3,285.5c29.9,65.3,71.9,108.3,128.4,131.2
  c48.2,19.6,106.8,25,184.3,16.9c44.8-4.5,92.5-12.1,143-20.1c106.7-16.9,227.7-36.1,368.3-34.5c73.4,0.1,153.7,5.2,243.3,15.6
  c-89.7-8.7-169.9-12.3-243.2-10.9C1040.5-58,921.2-36.7,815.9-17.8C765.2-8.7,717.3-0.2,672,5.3c-77.5,9.6-136.4,5.5-185.4-12.7
  C429.2-28.8,386-70.1,354.5-133.7c-34.3-68.9-53.7-163-57.8-279.6c-4.4-122.4,8.5-269.1,37.3-424.3l-1-0.2
  c-28.9,155.3-41.8,302-37.3,424.5c4.1,116.8,23.6,211,57.9,280C385.2-69.4,428.6-28,486.3-6.5c49.2,18.3,108.2,22.4,185.9,12.8
  C717.4,0.8,765.3-7.8,816-16.8c105.3-18.8,224.6-40.2,362.2-41.5c83.2-1.6,175.3,3.2,280,14.7c0.5,0.1,1,0.1,1.5,0.2
  c-105.5-9.8-197.9-12.9-281.2-9.6c-134.6,4-252.2,27.4-355.9,48c-51.1,10.2-99.4,19.8-145.2,26.2c-77.6,11.1-137,8.3-187-8.8
  c-58.5-20-103.1-60-136.3-122.1C318-177,296.3-269.4,289.8-384.2c-7-120.4,3.2-264.8,29.4-417.7l-1-0.2
  c-26,153.1-36.2,297.6-29.2,418c6.5,115,28.2,207.5,64.4,275c33.3,62.3,78,102.4,136.8,122.5c30.3,10.4,63.9,15.5,103,15.5
  c25.7,0,53.6-2.2,84.5-6.6C723.6,15.9,771.8,6.2,823-3.9c103.7-20.7,221.2-44.1,355.7-48c88.2-3.5,186.6,0.2,299.9,11.4
  c2.5,0.4,5,0.8,7.6,1.2c-116.5-9.7-217.1-11.9-306.8-6.5C1048-39.3,932.3-14,830.3,8.3c-51.7,11.3-100.4,22-147,29.3
  c-77.6,12.5-137.5,10.9-188.5-5.1C435.1,13.7,389.2-24.9,354.3-85.7c-38-65.9-61.7-156.7-70.6-269.8
  c-9.4-118.5-1.9-260.8,21.6-411.5l-1-0.2c-23.5,150.9-31,293.2-21.6,411.8c8.8,113.3,32.6,204.2,70.7,270.2
  c35,61,81.2,99.8,141,118.6c28.6,9,60,13.5,95.7,13.5c28.1,0,59-2.8,93.3-8.3c46.6-7.4,95.4-18.1,147.1-29.4
  c102-22.3,217.5-47.6,348.9-54.1c93.4-5.6,198.5-3.1,321,7.7c3.8,0.6,7.7,1.2,11.5,1.8c-1.6-0.1-3.1-0.2-4.7-0.3
  c-125.3-9.2-232.3-9.9-326.9-2.4c-128.1,8.9-241.7,35.8-341.9,59.6C786,34,736.6,45.8,689.2,54.1c-76.6,13.7-138.8,13.2-190-1.6
  C438.5,35,391.2-2.5,354.6-62c-39.8-64.6-65.7-153.8-76.8-265.4c-11.8-116.7-6.9-257,14-405.8l-1-0.1
  c-21,148.9-25.9,289.3-14.1,406.1c11.1,111.7,37,201.1,76.9,265.8C390.5-1.8,438,35.8,498.9,53.4c26.7,7.7,56.3,11.5,89.3,11.5
  c30.6,0,64.2-3.3,101.1-9.9c47.4-8.3,96.9-20.1,149.2-32.5c100.2-23.8,213.7-50.8,341.7-59.6c94.6-7.5,201.5-6.8,326.8,2.4
  c5.2,0.4,10.5,0.7,15.8,1.1c4.1,0.7,8.3,1.4,12.4,2.1c0.6,0.1,1.3,0.2,1.9,0.3c-11.7-0.7-23.2-1.4-34.6-1.9
  c-123.1-6.8-228.2-5.6-321.2,3.6c-124.7,11-236.1,39.5-334.4,64.7c-53.1,13.6-103.3,26.4-151.7,35.7C618.6,85.8,556,86.4,503.8,72.5
  C442,56.1,393.4,19.8,355.3-38.6c-41.6-63.3-69.5-151.2-82.9-261.3c-14.1-115.1-11.8-253.6,6.7-400.6l-1-0.1
  c-18.5,147.1-20.8,285.7-6.7,400.8c13.4,110.2,41.3,198.3,83,261.7c38.3,58.6,87.1,95,149.2,111.5c25.2,6.7,52.8,10,83.2,10
  c32.8,0,68.9-3.9,108.7-11.6c48.4-9.3,98.6-22.1,151.8-35.7c98.3-25.1,209.6-53.6,334.2-64.6c93-9.2,198-10.4,321.1-3.6
  c14.5,0.7,29.3,1.6,44.3,2.5c5.8,1,11.6,2,17.5,3c-22.5-1.1-44.5-2.1-66-2.8c-120.9-4.5-224.1-1.5-315.6,9.3
  C1061.6-7.1,952.5,22.7,856.2,49C802.1,63.8,751,77.8,701.5,88c-76.7,16.1-139.8,17.6-192.9,4.7C445.8,77.3,395.9,42,356-15.3
  c-43.4-62.2-73.3-148.8-88.9-257.6c-16.4-113.6-16.6-250.5-0.5-395.8l-1-0.1c-16.1,145.4-15.9,282.4,0.5,396.1
  c15.6,108.9,45.6,195.7,89,258c40,57.5,90,93,153.1,108.3c23.8,5.8,49.6,8.7,77.7,8.7c34.8,0,73.2-4.5,115.7-13.4
  C751.2,78.7,802.3,64.8,856.4,50c96.2-26.3,205.3-56.1,326.4-69.1c91.4-10.8,194.6-13.8,315.4-9.3c24.1,0.8,48.9,1.9,74.2,3.2
  c6.5,1.1,13.1,2.3,19.7,3.4c-33.8-1.2-66.4-2.2-98-2.8c-118.7-2.4-220.1,2.4-310,14.7C1066.5,4.9,964.4,34.6,865.6,63.2
  c-55.1,16-107.1,31-157.7,42.2c-76.7,17.2-140.3,19.6-194.4,7.5C449.6,98.5,398.4,64.1,357,7.8c-45.2-61.1-77.1-146.6-94.8-254.2
  c-18.7-112.3-21.3-247.6-7.5-391.5l-1-0.1c-13.8,144-11.2,279.4,7.5,391.8c17.8,107.7,49.7,193.3,95,254.6
  c41.6,56.6,92.9,91.1,157.1,105.5c22.5,5.1,46.7,7.6,72.8,7.6c36.7,0,77.1-5,122-15.1c50.7-11.2,102.7-26.2,157.8-42.2
  c98.8-28.6,200.9-58.2,318.4-73c89.8-12.3,191.2-17.1,309.8-14.6c33.9,0.5,68.9,1.7,105.2,3c7.1,1.3,14.4,2.6,21.6,3.9
  c-45.6-1-89.1-1.9-130.8-1.9c-116.5-0.4-216.1,6-304.5,19.6c-114,16.4-213.8,46.9-310.3,76.5c-56.2,17.2-109.2,33.4-161.1,45.5
  c-76.7,18.2-140.8,21.5-195.8,10C453.5,119.7,401,86.2,358,30.7c-22.8-29.3-42.9-65.1-59.6-106.3c-17.2-42.6-31.1-91.3-41-144.8
  c-20.9-111.1-25.9-245.1-14.4-387.7l-1-0.1c-11.5,142.6-6.5,276.8,14.4,387.9c10,53.6,23.8,102.3,41.1,145
  c16.7,41.4,36.8,77.2,59.7,106.6c43.1,55.7,95.8,89.3,161,102.9c21.4,4.4,44.1,6.7,68.4,6.7c38.4,0,80.7-5.6,127.8-16.7
  c52-12.1,105-28.3,161.2-45.5c96.5-29.5,196.2-60,310.1-76.4c88.3-13.7,187.8-20.6,304.3-19.6h1.7c43.1,0,88.2,0.8,135.5,1.9
  c7.7,1.4,15.5,2.8,23.3,4.3c-2.9,0-5.8-0.1-8.7-0.1c-54.8-0.4-106.6-0.8-155.8,0c-114.4,1.4-212.2,9.3-299,24.3
  c-110.3,17.8-207.6,49.1-301.8,79.3c-57.3,18.4-111.5,35.8-164.8,48.8c-76.7,19.1-141.2,23.1-197.2,12.4
  c-66-12.7-119.7-45.4-164.2-100.2c-23.6-28.9-44.6-64.2-62.2-105.1c-18.2-42.2-33.1-90.4-44.1-143.4
  c-23.1-110-30.4-242.9-21.1-384.3l-1-0.1c-9.3,141.5-2,274.5,21.1,384.6c11,53.1,25.9,101.4,44.1,143.6
  c17.7,40.9,38.7,76.4,62.4,105.3c22.8,28,48.7,50.8,77,67.6c26.5,15.8,56,26.8,87.8,32.9c20.3,3.9,41.8,5.9,64.6,5.9
  c40,0,84.1-6.1,133.1-18.2c53.3-13,107.5-30.4,164.8-48.8C979.7,63.1,1077,31.8,1187.2,14C1274-0.9,1371.7-8.8,1486-10.2
  c49.2-0.8,101-0.4,155.8,0c4.8,0,9.6,0.1,14.4,0.1c8.3,1.5,16.6,3.1,24.9,4.6c-15.9,0.2-31.6,0.3-47.1,0.4
  c-53.5,0.4-104,0.8-152,2.4c-112.2,3.1-208.2,12.4-293.6,28.6c-106.6,19-201.4,50.9-293.2,81.6c-58.5,19.6-113.8,38.2-168.5,52.2
  C650,179.5,585,184.2,528.1,174.1c-32.1-5.7-62-16.4-89.1-31.8c-28.9-16.4-55.4-38.7-79-66.3c-24.5-28.5-46.3-63.5-64.9-104
  c-19.2-41.8-35-89.6-47.1-142.2c-25.2-109.1-34.8-241-27.6-381.4l-1-0.1c-7.2,140.5,2.4,272.5,27.6,381.7
  c12.1,52.7,27.9,100.6,47.2,142.4c18.6,40.6,40.5,75.6,65,104.2c23.6,27.7,50.3,50.1,79.2,66.6c27.1,15.4,57.2,26.2,89.4,31.9
  c19.4,3.5,39.8,5.2,61.2,5.2c41.5,0,87.1-6.5,137.8-19.7c54.8-14,110.1-32.5,168.6-52.2c91.7-30.8,186.5-62.6,293-81.6
  c85.3-16.1,181.3-25.5,293.4-28.6c48-1.5,98.5-1.9,151.9-2.4c17.2-0.1,34.6-0.3,52.2-0.5c8.7,1.6,17.5,3.3,26.3,5
  c-29.3,0.8-58,1.5-86.2,2.1c-52.2,1.2-101.6,2.3-148.4,4.5c-110,4.6-204.3,15.3-288.2,32.5c-102.9,20-195.1,52.3-284.4,83.5
  c-59.8,20.9-116.2,40.6-172.5,55.5c-76.7,20.6-142.1,25.9-200,16.3c-32.5-5.4-63-15.8-90.7-30.9c-29.5-16.1-56.8-38.1-81.1-65.5
  c-25.3-28.2-48-62.9-67.5-103c-20.2-41.5-37-89-50.1-141.2c-27.3-108.4-39.1-239.4-34-379h-1c-5.1,139.7,6.7,270.8,34.1,379.3
  c13.1,52.3,29.9,99.9,50.1,141.4c19.6,40.2,42.3,75,67.7,103.3c24.4,27.4,51.8,49.5,81.4,65.7c27.7,15.2,58.4,25.6,91,31
  c18.6,3.1,38,4.7,58.4,4.7c42.9,0,89.9-7,142-21c56.3-14.9,112.8-34.6,172.6-55.5c89.2-31.2,181.5-63.4,284.3-83.4
  c83.8-17.2,178.1-27.9,288-32.5c46.8-2.2,96.2-3.3,148.4-4.5c29.7-0.7,59.8-1.3,90.8-2.2c9.1,1.7,18.4,3.5,27.6,5.2
  c-43.5,2.1-85.1,3.6-125.9,5.1c-51.1,1.9-99.4,3.6-145.2,6.4c-107.9,6-200.4,17.8-282.8,36.1c-99.2,20.9-188.8,53.3-275.5,84.8
  c-61,22.1-118.7,43-176.5,58.8c-76.7,21.2-142.5,27.1-201.3,17.9c-33-5.2-64-15.3-92.3-30.2c-30.2-15.9-58.2-37.7-83.3-64.7
  c-26.1-28-49.7-62.4-70.1-102.3c-21.1-41.2-38.9-88.4-53-140.4C209.2-229.7,195.3-360,198.3-499h-1c-3,139,10.9,269.5,40.4,377.4
  c14.1,52,31.9,99.3,53.1,140.6c20.5,40,44.1,74.5,70.3,102.5c25.2,27.2,53.3,49,83.5,64.9c28.4,14.9,59.5,25.1,92.6,30.3
  c18,2.8,36.6,4.2,56,4.2c44.2,0,92.3-7.3,145.7-22.1c57.8-15.7,115.5-36.6,176.6-58.8c86.7-31.4,176.3-63.9,275.4-84.7
  c82.4-18.2,174.9-30,282.7-36.1c45.8-2.8,94.1-4.5,145.2-6.4c42.1-1.5,85.1-3.1,130.1-5.3c1,0.2,2,0.4,3.1,0.6
  c8.5,1.6,17.1,3.2,25.7,4.9c-58.5,4.1-113.2,6.8-166.4,9.4c-50.1,2.5-97.3,4.8-142.2,8.1c-105.7,7.3-196.5,20.1-277.5,39.3
  c-95.5,21.5-182.5,54.1-266.6,85.6c-62.3,23.3-121.2,45.4-180.6,62c-76.7,21.8-143,28.1-202.7,19.2c-33.4-5-65-14.9-93.9-29.6
  c-30.8-15.7-59.6-37.3-85.4-64.2c-26.9-27.8-51.3-62-72.7-101.7c-22-41-40.9-88-55.9-139.7c-31.4-107.3-47.5-237.2-46.5-375.6h-1
  c-1,138.5,15.1,268.5,46.6,375.9c15.1,51.8,33.9,98.9,56,139.9c21.4,39.8,45.9,74.1,72.9,101.9c25.9,27,54.8,48.6,85.7,64.4
  c29,14.7,60.6,24.7,94.2,29.7c17.5,2.6,35.5,3.9,54.2,3.9c45.3,0,94.5-7.7,148.9-23.1c59.5-16.6,118.3-38.7,180.7-62
  c84.1-31.5,171.1-64.1,266.5-85.6c81-19.1,171.7-32,277.4-39.3c44.8-3.3,92.1-5.6,142.1-8.1c54.4-2.7,110.3-5.4,170.3-9.7
  c9.9,1.9,19.9,3.8,29.9,5.6c-74.6,7-142.3,11.1-207.8,15.1c-49.1,3-95.5,5.8-139.4,9.6c-103.6,8.4-192.6,22.2-272.2,42.1
  c-91.8,22-176.1,54.5-257.6,86c-63.6,24.5-123.6,47.7-184.7,65.1c-164.4,47.7-291,24-387-72.6c-27.7-27.6-53-61.7-75.3-101.3
  c-23-40.9-42.8-87.7-58.8-139.3c-33.5-107-51.7-236.6-52.6-374.7h-1c0.9,138.2,19.1,267.9,52.7,374.9c16,51.6,35.8,98.6,58.9,139.5
  c22.3,39.6,47.7,73.8,75.4,101.5c64.1,64.7,142,96.8,235.7,96.8c46.7,0,97.3-8,152.1-23.9c61.1-17.4,121.2-40.6,184.8-65.2
  c81.5-31.5,165.8-64,257.5-85.9c79.6-19.9,168.6-33.7,272.1-42.1c43.9-3.8,90.3-6.6,139.4-9.6c65.7-4,133.7-8.2,208.7-15.2l-0.1-0.8
  c55.1,10.4,111.9,20.8,171.3,31L1983.8,49.3L1983.8,49.3z M1774.8,5c-9.1-1.5-18.2-3.1-27.3-4.6c7.1-0.2,14.3-0.5,21.5-0.8
  c9.2,1.4,18.5,2.8,27.8,4.1C1789.5,4.1,1782.1,4.6,1774.8,5z M1630.9-19.3c5.4,0.2,10.9,0.4,16.4,0.7c7,1,14,2.1,21.1,3.1
  c-5.7-0.1-11.4-0.3-17.1-0.4C1644.4-17.1,1637.6-18.2,1630.9-19.3z M1791.5-13.3h-3.9c-1.5-0.1-2.9-0.2-4.4-0.3
  c1.1,0,2.2,0.1,3.3,0.1C1788.2-13.4,1789.8-13.4,1791.5-13.3z M1737.3-6.2c-4.6-0.7-9.3-1.4-13.9-2.1l-10.2-1.5
  c6.6,0,13.2,0,19.8,0.1c8.2,1.1,16.4,2.1,24.7,3.2C1750.8-6.4,1744-6.3,1737.3-6.2z M1764.4-5.7c8.7,1.1,17.5,2.3,26.4,3.4
  c-7.3,0.3-14.5,0.6-21.6,0.9l-25.8-3.9C1750.3-5.4,1757.3-5.6,1764.4-5.7z M1590.8-28.1c2.5,0.3,4.9,0.6,7.4,0.9
  c-1.9-0.1-3.7-0.3-5.6-0.4c-2.3-0.3-4.5-0.6-6.7-0.9C1587.5-28.3,1589.1-28.2,1590.8-28.1L1590.8-28.1z M1702.6-14.8
  c-6.2-0.8-12.3-1.6-18.5-2.4c5.2,0.2,10.5,0.4,15.7,0.6c6.4,0.7,12.7,1.4,19.1,2.1C1713.5-14.5,1708-14.6,1702.6-14.8L1702.6-14.8z
   M1670.8-19.8c5.1,0.6,10.1,1.1,15.2,1.7c-4.3-0.2-8.7-0.3-13-0.5c-4.9-0.6-9.7-1.3-14.6-1.9c3,0.2,6,0.3,9,0.5
  C1668.7-19.9,1669.7-19.9,1670.8-19.8z M1713.6-16c4.7,0.2,9.4,0.4,14.2,0.5c5.7,0.5,11.3,1,17,1.6c-5-0.1-9.9-0.2-14.8-0.3
  C1724.4-14.8,1719-15.4,1713.6-16L1713.6-16z M1699.9-17.6c-0.4,0-0.8-0.1-1.2-0.1c-3.2-0.4-6.3-0.7-9.4-1.1c3,0.2,6,0.3,8.9,0.5
  c3.8,0.4,7.5,0.7,11.3,1.1C1706.3-17.3,1703.1-17.4,1699.9-17.6L1699.9-17.6z M1652.2-21.9c-2.5-0.1-5.1-0.3-7.6-0.4
  c-2.9-0.4-5.8-0.7-8.7-1.1c2.3,0.2,4.6,0.3,6.9,0.5C1646-22.6,1649.1-22.2,1652.2-21.9L1652.2-21.9z M1617.1-24.8
  c4.4,0.6,8.9,1.1,13.4,1.7c-3.7-0.2-7.4-0.4-11-0.6c-4.2-0.6-8.5-1.2-12.7-1.8C1610.2-25.3,1613.6-25,1617.1-24.8L1617.1-24.8z
   M1644.5-21.3c5.8,0.7,11.5,1.5,17.4,2.2c-1.1,0-2.2-0.1-3.3-0.1c-3.7-0.1-7.5-0.3-11.2-0.4c-5.6-0.8-11.2-1.6-16.7-2.4
  C1635.3-21.8,1639.9-21.6,1644.5-21.3L1644.5-21.3z M1658.5-18.2c4.8,0.2,9.6,0.4,14.5,0.6c6.7,0.9,13.5,1.8,20.3,2.7
  c-5.7-0.1-11.3-0.3-17-0.4c-6.6-1-13.2-2-19.7-2.9H1658.5L1658.5-18.2z M1702.5-13.8c2.6,0.3,5.3,0.7,8,1c4.9,0.6,9.8,1.3,14.8,1.9
  c-6.3,0-12.6,0-18.9-0.1c-7.4-1.1-14.8-2.2-22.1-3.3C1690.3-14,1696.4-13.9,1702.5-13.8z M1740.8-9.8h20c8,0.9,16.1,1.8,24.2,2.6
  c-6.9,0.2-13.8,0.3-20.6,0.4C1756.5-7.7,1748.6-8.7,1740.8-9.8z M1733.1-10.8c-7.1-0.9-14.3-1.9-21.4-2.8c6,0.1,12.1,0.2,18.1,0.4
  c7.3,0.8,14.6,1.6,22,2.4H1733.1z M1740.7-13c5.8,0.1,11.6,0.2,17.5,0.3c6.9,0.6,13.8,1.2,20.8,1.9c-6.1,0-12.1,0.1-18.1,0.1
  C1754.1-11.5,1747.3-12.3,1740.7-13L1740.7-13z M1771.5-12.5c5.3,0.1,10.6,0.1,16,0.2c6.2,0.4,12.5,0.8,18.7,1.3
  c-5.6,0.1-11.1,0.1-16.7,0.1C1783.5-11.4,1777.5-12,1771.5-12.5z M1758.2-13.7c-4.2-0.4-8.4-0.8-12.5-1.1c3.6,0.1,7.3,0.3,10.9,0.4
  l13.2,0.9C1765.9-13.6,1762.1-13.7,1758.2-13.7z M1729.6-16.4c-0.6,0-1.2,0-1.8-0.1c-0.8-0.1-1.6-0.1-2.3-0.2c0.4,0,0.8,0,1.2,0.1
  C1727.6-16.6,1728.6-16.5,1729.6-16.4L1729.6-16.4z M1542.2-33.4c1.8,0.2,3.7,0.5,5.5,0.7l-3.6-0.3c-1.6-0.2-3.2-0.5-4.8-0.7
  C1540.3-33.5,1541.2-33.5,1542.2-33.4z M1566.8-30.1c3.8,0.5,7.6,1,11.4,1.6l-9-0.6c-3.6-0.6-7.2-1.1-10.8-1.7
  C1561.1-30.6,1563.9-30.3,1566.8-30.1z M1592.5-26.5c5.2,0.7,10.3,1.5,15.6,2.2c-4.2-0.2-8.4-0.5-12.6-0.7c-5-0.8-9.9-1.6-14.8-2.3
  C1584.5-27.1,1588.5-26.8,1592.5-26.5z M1619.3-22.7l18.6,2.7c-5.1-0.2-10.1-0.4-15.1-0.6c-6-1-12-1.9-17.9-2.9
  C1609.7-23.2,1614.5-23,1619.3-22.7z M1676.3-14.3c7.7,1.1,15.4,2.3,23.1,3.5c-6.2,0-12.5-0.1-18.6-0.1c-7.5-1.3-15-2.5-22.5-3.8
  C1664.2-14.6,1670.2-14.5,1676.3-14.3z M1706.3-9.9c5.6,0.8,11.3,1.7,17,2.6c2.6,0.4,5.3,0.8,7.9,1.2l-20,0.3
  c-8.2-1.4-16.3-2.8-24.3-4.1H1706.3z M1737.2-5.2c8.8,1.3,17.6,2.6,26.4,4c-7.1,0.3-14.1,0.5-21.1,0.7c-1.8-0.3-3.6-0.6-5.3-0.9
  c-6.9-1.2-13.7-2.3-20.6-3.5L1737.2-5.2z M1824.5,2c-7.6,0.5-15.2,1-22.7,1.4c-9.1-1.3-18.2-2.7-27.3-4c7.3-0.3,14.7-0.6,22.2-0.9
  C1805.8-0.4,1815.1,0.8,1824.5,2z M1818.7-3.6c-7.4,0.4-14.8,0.7-22,1c-8.6-1.1-17.1-2.2-25.5-3.3c7.1-0.2,14.3-0.3,21.5-0.5
  C1801.2-5.4,1809.9-4.5,1818.7-3.6z M1792.6-7.3c-7.7-0.8-15.3-1.7-22.9-2.5c6.6,0,13.2-0.1,19.9-0.1c7.8,0.7,15.6,1.4,23.5,2
  C1806.2-7.7,1799.4-7.5,1792.6-7.3z M1841.7-8.8c-6.7,0.2-13.3,0.5-19.9,0.7c-7.3-0.6-14.6-1.2-21.8-1.9c6.4-0.1,12.8-0.1,19.3-0.2
  C1826.7-9.7,1834.2-9.3,1841.7-8.8z M1819.3-11.2l-14.4-0.9c4.3,0,8.6,0.1,12.9,0.1l15,0.6C1828.3-11.3,1823.8-11.3,1819.3-11.2z
   M1850.1-11.7c-2.2-0.1-4.3-0.2-6.4-0.3h5.4c2.3,0,4.6,0.1,7,0.1C1854.1-11.8,1852.1-11.7,1850.1-11.7z M1497.8-38.6
  c0.3,0,0.6,0.1,0.9,0.1c1.2,0.2,2.3,0.3,3.4,0.5c-0.5,0-1.1-0.1-1.6-0.1C1499.6-38.3,1498.7-38.5,1497.8-38.6L1497.8-38.6z
   M1514.7-35.9c2,0.2,4,0.4,5.9,0.5c2.7,0.4,5.5,0.8,8.2,1.2c0.3,0,0.5,0.1,0.8,0.1c-2.2-0.2-4.4-0.3-6.6-0.5
  C1520.2-35,1517.4-35.4,1514.7-35.9z M1535.5-32.5c-0.5-0.1-1-0.2-1.5-0.2c3.3,0.3,6.6,0.5,9.9,0.8c4.5,0.7,9.1,1.4,13.6,2
  c-3.6-0.2-7.1-0.5-10.6-0.7C1543.1-31.2,1539.3-31.8,1535.5-32.5z M1556.4-29c4.2,0.3,8.4,0.5,12.6,0.8c5.6,0.9,11.1,1.7,16.8,2.6
  c-4.4-0.2-8.8-0.5-13.2-0.7C1567.2-27.1,1561.8-28.1,1556.4-29L1556.4-29z M1580.7-24.8c4.8,0.2,9.7,0.5,14.6,0.8
  c6.4,1,12.8,2,19.3,3.1c-5.1-0.2-10.2-0.4-15.2-0.6C1593.1-22.6,1586.9-23.7,1580.7-24.8L1580.7-24.8z M1606.5-20.2l16.2,0.6
  c7.1,1.2,14.3,2.3,21.5,3.5c-5.6-0.1-11.3-0.3-16.9-0.4C1620.3-17.8,1613.4-19,1606.5-20.2L1606.5-20.2z M1633.6-15.3
  c5.4,0.1,10.9,0.3,16.4,0.4h1.2c7.7,1.3,15.5,2.6,23.3,3.9c-6.1,0-12.2-0.1-18.2-0.1C1648.7-12.6,1641.1-14,1633.6-15.3L1633.6-15.3
  z M1661.9-10.1c6.2,0,12.5,0.1,18.8,0.1c8.3,1.4,16.6,2.8,25,4.2c-6.5,0.1-13,0.1-19.4,0.2C1678.1-7.1,1669.9-8.6,1661.9-10.1z
   M1691.3-4.6c6.6-0.1,13.2-0.1,19.9-0.2c8.6,1.5,17.2,2.9,25.9,4.4c0.2,0,0.3,0.1,0.5,0.1l-20.4,0.6C1708.5-1.4,1699.9-3,1691.3-4.6
  z M1721.8,1.1c6.9-0.2,13.8-0.4,20.8-0.6c9.2,1.6,18.5,3.1,27.8,4.7c-7.1,0.4-14.2,0.8-21.3,1.1C1739.9,4.6,1730.8,2.8,1721.8,1.1z
   M1753.2,7.1c7.2-0.4,14.4-0.7,21.6-1.1c9.6,1.6,19.3,3.3,29,4.9c-7.4,0.6-14.8,1.1-22.1,1.6C1772.1,10.7,1762.6,8.9,1753.2,7.1z"/>
<path class="st1" d="M1405,406.3c-36.5,3.1-71,5.9-102.7,9.7c-70.9,8-130.6,20.8-188.1,40.4c-45,14.8-89.1,34.3-135.7,55
  c-70.1,31.2-142.6,63.4-226.9,82.9C635.3,622,460.3,625.6,286.8,485.8c-82.4-66.1-157.4-160.1-217-272
  C5.2,93.2-43.6-51.4-71.4-204.2l-1,0.2C-44.6-51.1,4.2,93.6,68.9,214.3c59.6,112,134.8,206.1,217.3,272.3
  c118.2,95.2,237.1,124,337.7,124c47.4,0,90.7-6.4,128-15.3c84.4-19.6,157-51.8,227.1-83c46.6-20.7,90.6-40.3,135.6-55
  c57.4-19.6,117.1-32.4,187.9-40.4c31.6-3.8,66.1-6.7,102.6-9.7c45.7-3.8,97.5-8.2,155.2-15.2l-0.1-1
  C1502.5,398.1,1450.7,402.4,1405,406.3L1405,406.3z"/>
</svg>
